<?xml version="1.0" encoding="UTF-8"?>
<!DOCTYPE svg PUBLIC "-//W3C//DTD SVG 1.1//EN" "http://www.w3.org/Graphics/SVG/1.1/DTD/svg11.dtd">
<!-- Creator: CorelDRAW 2021 (64-Bit) -->
<svg xmlns="http://www.w3.org/2000/svg" xml:space="preserve" width="45.0334mm" height="23.8594mm" version="1.1" style="shape-rendering:geometricPrecision; text-rendering:geometricPrecision; image-rendering:optimizeQuality; fill-rule:evenodd; clip-rule:evenodd"
viewBox="0 0 1944.93 1030.46"
 xmlns:xlink="http://www.w3.org/1999/xlink"
 xmlns:xodm="http://www.corel.com/coreldraw/odm/2003">
 <defs>
  <style type="text/css">
   <![CDATA[
    .fil0 {fill:none}
    .fil3 {fill:#FEFEFE}
    .fil2 {fill:#E41D36}
    .fil1 {fill:#FEFEFE;fill-rule:nonzero}
   ]]>
  </style>
 </defs>
 <g id="Слой_x0020_1">
  <metadata id="CorelCorpID_0Corel-Layer"/>
  <rect class="fil0" y="-0" width="1944.93" height="1030.46"/>
  <g id="_2348433523552">
   <g>
    <path class="fil1" d="M642.96 853.37c2.35,-8.66 -0.79,-12.98 -9.45,-12.98l-103.86 0c-8.65,0 -14.15,4.33 -16.51,12.98 -2.35,8.66 0.79,12.98 9.45,12.98l103.85 0c8.66,0 14.16,-4.33 16.52,-12.98zm18.93 137.17c-15.58,0 -27.36,-5.48 -35.34,-16.45 -7.98,-10.96 -9.85,-24.23 -5.61,-39.81l3.18 -11.68c2.04,-7.5 -0.69,-11.25 -8.19,-11.25l-107.32 0c-7.5,0 -12.27,3.75 -14.31,11.25l-3.18 11.68c-4.24,15.58 -13.33,28.85 -27.27,39.81 -13.95,10.97 -28.71,16.45 -44.29,16.45l39.92 -146.69c4.24,-15.57 13.35,-28.92 27.33,-40.02 13.98,-11.11 28.77,-16.66 44.35,-16.66l129.81 0c15.58,0 27.34,5.55 35.28,16.66 7.94,11.1 9.8,24.45 5.55,40.02l-39.92 146.69z"/>
    <path class="fil1" d="M887.22 924.34c0.94,-3.46 0.47,-6.49 -1.43,-9.09 -1.89,-2.6 -4.57,-3.89 -8.02,-3.89l-106.88 0c-3.46,0 -6.84,1.3 -10.15,3.89 -3.3,2.6 -5.43,5.63 -6.37,9.09 -2.35,8.66 0.8,12.98 9.45,12.98l106.88 0c8.66,0 14.16,-4.32 16.52,-12.98zm8.06 -70.97c2.35,-8.66 -0.79,-12.98 -9.45,-12.98l-95.63 0c-8.65,0 -14.16,4.33 -16.51,12.98 -2.36,8.66 0.79,12.98 9.45,12.98l95.63 0c8.65,0 14.15,-4.33 16.51,-12.98zm48.51 80.92c-4.24,15.58 -13.41,28.85 -27.49,39.81 -14.09,10.97 -28.92,16.45 -44.5,16.45l-186.07 0 55.35 -203.38 174.82 0c15.58,0 27.41,5.55 35.49,16.66 8.08,11.1 10.01,24.45 5.77,40.02 -4.4,16.16 -14.04,29.86 -28.93,41.11 16.42,10.67 21.61,27.11 15.57,49.33z"/>
    <path class="fil1" d="M1203.41 787.16c-4.01,14.71 -12.62,27.26 -25.83,37.65 -13.21,10.39 -27.03,15.58 -41.45,15.58l-23.37 0c-7.5,0 -12.27,3.75 -14.31,11.25l-30.15 110.78c-2.12,7.79 -6.67,14.42 -13.64,19.9 -6.97,5.48 -14.35,8.22 -22.14,8.22 -7.79,0 -13.68,-2.74 -17.67,-8.22 -3.99,-5.48 -4.92,-12.11 -2.8,-19.9l30.14 -110.78c2.04,-7.5 -0.83,-11.25 -8.62,-11.25l-22.93 0c-14.71,0 -25.85,-5.19 -33.41,-15.58 -7.56,-10.39 -9.33,-22.93 -5.33,-37.65l231.51 0z"/>
    <path class="fil1" d="M1353.55 920.44l17.19 -63.18c1.26,-4.61 0.68,-8.58 -1.74,-11.9 -2.42,-3.32 -5.93,-4.98 -10.55,-4.98l-96.06 0c-4.62,0 -9.04,1.66 -13.25,4.98 -4.22,3.32 -6.96,7.29 -8.21,11.9l-17.19 63.18c-1.26,4.61 -0.68,8.58 1.74,11.9 2.42,3.32 5.93,4.98 10.55,4.98l96.06 0c4.9,0 9.39,-1.66 13.47,-4.98 4.08,-3.32 6.75,-7.29 8,-11.9zm52.91 13.85c-4.24,15.58 -13.4,28.85 -27.49,39.81 -14.09,10.97 -28.92,16.45 -44.5,16.45l-129.82 0c-15.57,0 -27.35,-5.48 -35.33,-16.45 -7.98,-10.96 -9.85,-24.23 -5.61,-39.81l24.61 -90.44c4.24,-15.57 13.35,-28.92 27.33,-40.02 13.98,-11.11 28.77,-16.66 44.34,-16.66l129.82 0c15.58,0 27.41,5.55 35.49,16.66 8.08,11.1 10.01,24.45 5.77,40.02l-24.61 90.44z"/>
   </g>
   <g>
    <path class="fil1" d="M547.95 625.76l17.19 -63.18c1.26,-4.61 0.68,-8.58 -1.73,-11.9 -2.42,-3.32 -5.93,-4.98 -10.55,-4.98l-96.06 0c-4.61,0 -9.03,1.66 -13.25,4.98 -4.22,3.32 -6.96,7.29 -8.22,11.9l-17.19 63.18c-1.26,4.62 -0.68,8.59 1.74,11.9 2.42,3.32 5.93,4.98 10.55,4.98l96.06 0c4.91,0 9.4,-1.66 13.47,-4.98 4.08,-3.32 6.74,-7.29 8,-11.9zm52.92 13.85c-4.24,15.58 -13.4,28.85 -27.49,39.81 -14.09,10.96 -28.92,16.45 -44.5,16.45l-129.82 0c-15.57,0 -27.36,-5.48 -35.33,-16.45 -7.98,-10.96 -9.85,-24.23 -5.61,-39.81l24.61 -90.44c4.24,-15.57 13.35,-28.92 27.33,-40.02 13.98,-11.11 28.77,-16.66 44.35,-16.66l129.82 0c15.58,0 27.41,5.55 35.49,16.66 8.08,11.1 10.01,24.45 5.77,40.02l-24.61 90.44z"/>
    <path class="fil1" d="M809.88 558.69c2.35,-8.65 -0.8,-12.98 -9.45,-12.98l-86.97 0c-8.66,0 -14.16,4.33 -16.52,12.98 -2.35,8.66 0.79,12.98 9.45,12.98l86.98 0c8.66,0 14.16,-4.33 16.52,-12.98zm57.31 -3.89c-4.63,17.02 -14.65,31.59 -30.07,43.7 -15.41,12.12 -31.63,18.18 -48.65,18.18l-93.47 0c-7.5,0 -12.27,3.75 -14.31,11.25l-3.18 11.69c-4.24,15.58 -13.33,28.85 -27.27,39.81 -13.95,10.96 -28.71,16.45 -44.29,16.45l55.35 -203.38 160.97 0c17.02,0 29.92,6.13 38.7,18.39 8.78,12.26 10.85,26.9 6.22,43.92z"/>
    <path class="fil1" d="M1046.51 629.66c0.94,-3.46 0.47,-6.5 -1.43,-9.09 -1.89,-2.6 -4.57,-3.89 -8.03,-3.89l-106.88 0c-3.46,0 -6.85,1.3 -10.15,3.89 -3.3,2.6 -5.43,5.63 -6.37,9.09 -2.35,8.65 0.79,12.98 9.45,12.98l106.88 0c8.66,0 14.16,-4.33 16.52,-12.98zm8.06 -70.97c2.35,-8.65 -0.79,-12.98 -9.45,-12.98l-95.63 0c-8.66,0 -14.16,4.33 -16.52,12.98 -2.35,8.66 0.8,12.98 9.45,12.98l95.63 0c8.66,0 14.16,-4.33 16.52,-12.98zm48.51 80.92c-4.24,15.58 -13.4,28.85 -27.49,39.81 -14.09,10.96 -28.92,16.45 -44.5,16.45l-186.07 0 55.35 -203.38 174.82 0c15.57,0 27.41,5.55 35.49,16.66 8.08,11.1 10.01,24.45 5.77,40.02 -4.4,16.16 -14.04,29.86 -28.93,41.11 16.42,10.67 21.61,27.11 15.57,49.33z"/>
    <path class="fil1" d="M1327.45 558.69c2.35,-8.65 -0.79,-12.98 -9.45,-12.98l-103.86 0c-8.65,0 -14.15,4.33 -16.51,12.98 -2.35,8.66 0.79,12.98 9.45,12.98l103.86 0c8.65,0 14.15,-4.33 16.51,-12.98zm18.93 137.18c-15.58,0 -27.36,-5.48 -35.34,-16.45 -7.98,-10.96 -9.85,-24.23 -5.61,-39.81l3.18 -11.69c2.04,-7.5 -0.69,-11.25 -8.19,-11.25l-107.31 0c-7.5,0 -12.27,3.75 -14.31,11.25l-3.18 11.69c-4.24,15.58 -13.33,28.85 -27.27,39.81 -13.95,10.96 -28.71,16.45 -44.29,16.45l39.92 -146.69c4.24,-15.57 13.35,-28.92 27.33,-40.02 13.98,-11.11 28.77,-16.66 44.35,-16.66l129.81 0c15.58,0 27.34,5.55 35.28,16.66 7.94,11.1 9.8,24.45 5.55,40.02l-39.92 146.69z"/>
    <path class="fil1" d="M1569.78 558.69c2.35,-8.65 -0.79,-12.98 -9.45,-12.98l-86.98 0c-8.66,0 -14.16,4.33 -16.51,12.98 -2.36,8.66 0.79,12.98 9.45,12.98l86.97 0c8.66,0 14.16,-4.33 16.52,-12.98zm57.31 -3.89c-4.63,17.02 -14.65,31.59 -30.07,43.7 -15.41,12.12 -31.63,18.18 -48.65,18.18l-93.47 0c-7.5,0 -12.27,3.75 -14.31,11.25l-3.18 11.69c-4.24,15.58 -13.33,28.85 -27.28,39.81 -13.95,10.96 -28.7,16.45 -44.28,16.45l55.34 -203.38 160.97 0c17.02,0 29.92,6.13 38.7,18.39 8.78,12.26 10.85,26.9 6.22,43.92z"/>
    <path class="fil1" d="M1804.85 625.76l17.19 -63.18c1.26,-4.61 0.67,-8.58 -1.74,-11.9 -2.41,-3.32 -5.93,-4.98 -10.55,-4.98l-109.05 0 -26.37 96.93 109.04 0c4.91,0 9.39,-1.66 13.47,-4.98 4.08,-3.32 6.74,-7.29 8,-11.9zm52.91 13.85c-4.24,15.58 -13.4,28.85 -27.49,39.81 -14.09,10.96 -28.92,16.45 -44.5,16.45l-182.17 0 55.34 -203.38 182.18 0c15.57,0 27.41,5.55 35.49,16.66 8.08,11.1 10.01,24.45 5.77,40.02l-24.61 90.44z"/>
    <path class="fil1" d="M303.23 560.66c-2.52,9.27 -10.73,16.86 -18.24,16.86l-157.94 0c-7.51,0 -11.59,-7.59 -9.07,-16.86 2.53,-9.27 10.73,-16.85 18.24,-16.85l157.94 0c7.51,0 11.6,7.58 9.07,16.85zm15.12 -68.17l-178.37 0c-82.98,0.35 -117.32,135.53 -36.56,135.53l49.59 0c6.14,0 9.1,2.51 8.86,7.51l-16.52 60.7c15.61,0 30.4,-5.5 44.37,-16.48 13.9,-10.92 22.98,-24.14 27.26,-39.63l0.36 0 1.24 -4.55c2.48,-5.03 6.8,-7.55 12.95,-7.55l49.61 0c49.12,0 82.88,-50.03 83.15,-89.31l0 -0.75c-0.1,-24.94 -13.85,-45.34 -45.95,-45.48z"/>
   </g>
   <g>
    <path class="fil2" d="M893.17 401.56c4.64,-15.5 11,-39.59 15.04,-54.88 5.33,-20.23 13.03,-30.37 32.16,-35.97l343.27 -100.35c-61.1,-19.7 -171.31,-56.34 -266.46,-87.78 -9.31,-3.07 -18.51,-5.99 -27.44,-9.05 -15.14,-5.2 -15.6,-10.49 -7.91,-38.82l11.34 -41.79 536.24 177.44 -636.25 191.2z"/>
    <polygon class="fil3" points="1189.31,210.36 852.03,304.83 720.86,341.03 791.76,79.68 1189.31,210.36 "/>
   </g>
  </g>
 </g>
</svg>
